<svg width="39" height="39" viewBox="0 0 39 39" fill="none" xmlns="http://www.w3.org/2000/svg">
<path fill-rule="evenodd" clip-rule="evenodd" d="M19.617 6.01841C13.845 6.01841 9.16575 10.6976 9.16575 16.4697C9.16575 20.5133 11.8037 24.4745 14.7519 27.5866C16.1934 29.1081 17.6403 30.3547 18.7286 31.2213C19.0636 31.488 19.3634 31.7178 19.617 31.9075C19.8707 31.7178 20.1705 31.488 20.5054 31.2213C21.5938 30.3547 23.0407 29.1081 24.4822 27.5866C27.4304 24.4745 30.0683 20.5133 30.0683 16.4697C30.0683 10.6976 25.3891 6.01841 19.617 6.01841ZM19.617 33.8707C18.732 35.1983 18.7311 35.1978 18.7311 35.1978L18.727 35.195L18.7176 35.1887L18.686 35.1673C18.6593 35.1492 18.6215 35.1233 18.5733 35.09C18.4769 35.0232 18.3389 34.9263 18.1652 34.8008C17.818 34.5501 17.3273 34.1847 16.7408 33.7176C15.5703 32.7856 14.0055 31.4387 12.4353 29.7812C9.36011 26.5352 5.97461 21.7959 5.97461 16.4697C5.97461 8.9352 12.0825 2.82727 19.617 2.82727C27.1516 2.82727 33.2595 8.9352 33.2595 16.4697C33.2595 21.7959 29.874 26.5352 26.7988 29.7812C25.2286 31.4387 23.6638 32.7856 22.4933 33.7176C21.9068 34.1847 21.4161 34.5501 21.0689 34.8008C20.8952 34.9263 20.7572 35.0232 20.6608 35.09C20.6126 35.1233 20.5748 35.1492 20.5481 35.1673L20.5165 35.1887L20.5071 35.195L20.5041 35.197C20.5041 35.197 20.5021 35.1983 19.617 33.8707ZM19.617 33.8707L20.5021 35.1983C19.9662 35.5556 19.2671 35.5551 18.7311 35.1978L19.617 33.8707Z" fill="#333333"/>
<path d="M9.16575 16.4697C9.16575 10.6976 13.845 6.01841 19.617 6.01841C25.3891 6.01841 30.0683 10.6976 30.0683 16.4697C30.0683 20.5133 27.4304 24.4745 24.4822 27.5866C23.0407 29.1081 21.5938 30.3547 20.5054 31.2213C20.1705 31.488 19.8707 31.7178 19.617 31.9075C19.3634 31.7178 19.0636 31.488 18.7286 31.2213C17.6403 30.3547 16.1934 29.1081 14.7519 27.5866C11.8037 24.4745 9.16575 20.5133 9.16575 16.4697Z" fill="#333333"/>
<path fill-rule="evenodd" clip-rule="evenodd" d="M14.0068 16.4697C14.0068 13.3707 16.5191 10.8585 19.618 10.8585C22.717 10.8585 25.2292 13.3707 25.2292 16.4697C25.2292 19.5687 22.717 22.0809 19.618 22.0809C16.5191 22.0809 14.0068 19.5687 14.0068 16.4697ZM19.618 14.0497C18.2815 14.0497 17.198 15.1332 17.198 16.4697C17.198 17.8063 18.2815 18.8898 19.618 18.8898C20.9546 18.8898 22.0381 17.8063 22.0381 16.4697C22.0381 15.1332 20.9546 14.0497 19.618 14.0497Z" fill="white"/>
<path d="M17.198 16.4697C17.198 15.1332 18.2815 14.0497 19.618 14.0497C20.9546 14.0497 22.0381 15.1332 22.0381 16.4697C22.0381 17.8063 20.9546 18.8898 19.618 18.8898C18.2815 18.8898 17.198 17.8063 17.198 16.4697Z" fill="white"/>
</svg>
