<svg width="24" height="24" viewBox="0 0 24 24" fill="none" xmlns="http://www.w3.org/2000/svg">
<path fill-rule="evenodd" clip-rule="evenodd" d="M11.9994 3.77246C8.38184 3.77246 5.44922 6.70509 5.44922 10.3227C5.44922 12.8569 7.10251 15.3396 8.95027 17.29C9.85371 18.2436 10.7605 19.0249 11.4426 19.568C11.6526 19.7352 11.8404 19.8792 11.9994 19.9981C12.1584 19.8792 12.3463 19.7352 12.5562 19.568C13.2383 19.0249 14.1451 18.2436 15.0486 17.29C16.8963 15.3396 18.5496 12.8569 18.5496 10.3227C18.5496 6.70509 15.617 3.77246 11.9994 3.77246ZM11.9994 21.2285C11.4447 22.0606 11.4445 22.0604 11.4442 22.0602L11.4435 22.0597L11.4416 22.0585L11.4357 22.0545L11.4159 22.0411C11.3992 22.0298 11.3755 22.0136 11.3453 21.9926C11.2849 21.9508 11.1984 21.8901 11.0895 21.8114C10.8719 21.6543 10.5644 21.4253 10.1968 21.1326C9.4632 20.5484 8.48248 19.7043 7.49837 18.6655C5.57103 16.6311 3.44922 13.6608 3.44922 10.3227C3.44922 5.60052 7.27728 1.77246 11.9994 1.77246C16.7216 1.77246 20.5496 5.60052 20.5496 10.3227C20.5496 13.6608 18.4278 16.6311 16.5005 18.6655C15.5164 19.7043 14.5356 20.5484 13.8021 21.1326C13.4345 21.4253 13.1269 21.6543 12.9093 21.8114C12.8005 21.8901 12.714 21.9508 12.6536 21.9926C12.6234 22.0136 12.5997 22.0298 12.5829 22.0411L12.5631 22.0545L12.5573 22.0585L12.5553 22.0597L12.5546 22.0602C12.5544 22.0604 12.5541 22.0606 11.9994 21.2285ZM11.9994 21.2285L12.5541 22.0606C12.2182 22.2845 11.7806 22.2845 11.4447 22.0606L11.9994 21.2285Z" fill="#333333"/>
<path fill-rule="evenodd" clip-rule="evenodd" d="M8.48242 10.3224C8.48242 8.38016 10.0569 6.80566 11.9992 6.80566C13.9414 6.80566 15.5159 8.38016 15.5159 10.3224C15.5159 12.2646 13.9414 13.8391 11.9992 13.8391C10.0569 13.8391 8.48242 12.2646 8.48242 10.3224ZM11.9992 8.80566C11.1615 8.80566 10.4824 9.48473 10.4824 10.3224C10.4824 11.1601 11.1615 11.8391 11.9992 11.8391C12.8368 11.8391 13.5159 11.1601 13.5159 10.3224C13.5159 9.48473 12.8368 8.80566 11.9992 8.80566Z" fill="#333333"/>
</svg>
