<svg width="38" height="50" viewBox="0 0 38 50" fill="none" xmlns="http://www.w3.org/2000/svg">
<g clip-path="url(#clip0)">
<path d="M11.1404 12.4019V24.9677M11.1404 24.9677H16.0855V27.0862M11.1404 24.9677H6.04932V27.0862" stroke="#333333" stroke-width="2" stroke-linecap="round"/>
<path d="M9.76205 13.8891C8.81361 12.8897 8.79675 11.3008 9.72821 10.2767C10.2016 9.75631 10.8494 9.44894 11.5523 9.41129C12.1943 9.37684 12.8265 9.57642 13.333 9.97312L35.4463 27.7076C36.424 28.4916 36.5376 29.9381 35.6942 30.8651L32.7174 34.1378C31.8752 35.0636 30.4272 35.0885 29.5537 34.1924L9.76205 13.8891Z" fill="#9D4ACF"/>
<path d="M30.5209 27.0431C30.7813 26.8879 30.8085 26.522 30.572 26.3322L12.1075 11.5241C11.9892 11.4335 11.8426 11.3837 11.694 11.3837C11.6818 11.3837 11.6696 11.3839 11.6574 11.3847C11.4745 11.3945 11.3127 11.4712 11.1896 11.6064C10.9568 11.8623 10.9573 12.2714 11.1891 12.5225L27.5445 29.3007C27.7361 29.4972 28.0614 29.4699 28.2132 29.2413C28.8073 28.3471 29.5968 27.5937 30.5209 27.0431Z" fill="#C89AE4"/>
<path d="M28.998 41.9937V33.1853C28.998 30.3358 31.3164 28.0175 34.1659 28.0175C37.0155 28.0175 39.3338 30.3358 39.3338 33.1853V41.9937H28.998Z" fill="#C89AE4"/>
<path d="M18.3461 39.4647L18.2569 39.2586C17.5578 37.3924 15.7741 36.1559 13.7813 36.1559H8.53236C6.5395 36.1559 4.75581 37.3925 4.05679 39.2586L3.96758 39.4647H1.41214C0.908392 39.4647 0.5 39.8731 0.5 40.3769V46.2954C0.5 46.3969 0.506275 46.4983 0.51858 46.599C0.631414 47.3779 1.29993 47.9769 2.11007 47.9769H60.3997C62.0698 47.9769 63.4237 46.623 63.4237 44.9529V39.4649H18.3461V39.4647Z" fill="#9D4ACF"/>
<path d="M11.0954 53.5919C14.5775 53.5919 17.4003 50.7691 17.4003 47.287C17.4003 43.8049 14.5775 40.9821 11.0954 40.9821C7.61333 40.9821 4.79053 43.8049 4.79053 47.287C4.79053 50.7691 7.61333 53.5919 11.0954 53.5919Z" fill="#4F4F4F"/>
<path d="M11.0948 53.5926C14.5773 53.5926 17.4003 50.7695 17.4003 47.2871C17.4003 45.5459 16.6946 43.9695 15.5535 42.8284L6.63623 51.7457C7.77724 52.8868 9.35359 53.5926 11.0948 53.5926Z" fill="#333333"/>
<path d="M11.0962 50.1932C12.7013 50.1932 14.0024 48.8921 14.0024 47.287C14.0024 45.6819 12.7013 44.3807 11.0962 44.3807C9.49111 44.3807 8.18994 45.6819 8.18994 47.287C8.18994 48.8921 9.49111 50.1932 11.0962 50.1932Z" fill="#C89AE4"/>
<path d="M34.1652 35.0052C35.2305 35.0052 36.0941 34.1416 36.0941 33.0763C36.0941 32.0111 35.2305 31.1475 34.1652 31.1475C33.0999 31.1475 32.2363 32.0111 32.2363 33.0763C32.2363 34.1416 33.0999 35.0052 34.1652 35.0052Z" fill="#9D4ACF"/>
<path d="M37.381 45.627H28.7163H22.5973H20.2059C19.6963 45.627 19.2832 45.2139 19.2832 44.7043V42.989C19.2832 42.4794 19.6963 42.0663 20.2059 42.0663H37.3809C37.8906 42.0663 38.3036 42.4794 38.3036 42.989V44.7043C38.3038 45.2139 37.8907 45.627 37.381 45.627Z" fill="#C89AE4"/>
</g>
<defs>
<clipPath id="clip0">
<rect width="63" height="63" fill="white" transform="translate(0.5)"/>
</clipPath>
</defs>
</svg>
