<svg width="75" height="59" viewBox="0 0 75 59" fill="none" xmlns="http://www.w3.org/2000/svg">
<path d="M46.4792 41.9705L46.3843 41.7513C45.6409 39.7665 43.7439 38.4515 41.6245 38.4515H36.0424C33.923 38.4515 32.026 39.7667 31.2826 41.7513L31.1877 41.9705H28.4701C27.9343 41.9705 27.5 42.4048 27.5 42.9405V49.2349C27.5 49.3428 27.5067 49.4507 27.5198 49.5577C27.6398 50.386 28.3507 51.0231 29.2123 51.0231H82.1109C83.8871 51.0231 85.3269 49.5832 85.3269 47.8071V41.9706L46.4792 41.9705Z" fill="#9D4ACF"/>
<path d="M83.6267 51.0229C85.4028 51.0229 86.9237 49.5831 86.9237 47.8069V30.4545C86.9237 29.8036 86.6672 29.1789 86.2097 28.7158L79.163 21.5821C78.6981 21.1115 78.0643 20.8467 77.4028 20.8467H64.7134C63.4387 20.8467 62.4053 21.8801 62.4053 23.1548V51.0231L83.6267 51.0229Z" fill="#9D4ACF"/>
<path d="M86.2097 28.7156L79.1629 21.582C78.6981 21.1114 78.0642 20.8466 77.4027 20.8466H71.4482C72.1097 20.8466 72.7436 21.1114 73.2084 21.582L80.2552 28.7156C80.7127 29.1787 80.9692 29.8035 80.9692 30.4544V47.8068C80.9692 49.583 79.4483 51.0228 77.6722 51.0228H83.6268C85.4029 51.0228 86.9238 49.583 86.9238 47.8068V30.4545C86.9236 29.8035 86.6672 29.1789 86.2097 28.7156Z" fill="#9D4ACF"/>
<path d="M66.6826 35.4109V26.0349C66.6826 25.4707 67.1401 25.0132 67.7044 25.0132H76.2027C76.4759 25.0132 76.7377 25.1226 76.9297 25.3169L82.3513 30.8055C82.5403 30.9967 82.6461 31.2548 82.6461 31.5236V35.411C82.6461 35.9753 82.1886 36.4327 81.6244 36.4327H67.7044C67.1401 36.4326 66.6826 35.9751 66.6826 35.4109Z" fill="#C89AE4"/>
<path d="M38.7682 56.9945C42.4714 56.9945 45.4734 53.9925 45.4734 50.2893C45.4734 46.5861 42.4714 43.5841 38.7682 43.5841C35.065 43.5841 32.063 46.5861 32.063 50.2893C32.063 53.9925 35.065 56.9945 38.7682 56.9945Z" fill="#4F4F4F"/>
<path d="M38.7676 56.9953C42.4711 56.9953 45.4734 53.993 45.4734 50.2894C45.4734 48.4376 44.7228 46.7612 43.5094 45.5476L34.0259 55.0311C35.2393 56.2447 36.9158 56.9953 38.7676 56.9953Z" fill="#333333"/>
<path d="M38.769 53.38C40.476 53.38 41.8597 51.9962 41.8597 50.2892C41.8597 48.5823 40.476 47.1985 38.769 47.1985C37.062 47.1985 35.6782 48.5823 35.6782 50.2892C35.6782 51.9962 37.062 53.38 38.769 53.38Z" fill="#C89AE4"/>
<path d="M75.3097 56.9945C79.0129 56.9945 82.0149 53.9925 82.0149 50.2893C82.0149 46.5861 79.0129 43.5841 75.3097 43.5841C71.6065 43.5841 68.6045 46.5861 68.6045 50.2893C68.6045 53.9925 71.6065 56.9945 75.3097 56.9945Z" fill="#4F4F4F"/>
<path d="M75.3091 56.9953C79.0126 56.9953 82.0149 53.993 82.0149 50.2894C82.0149 48.4376 81.2643 46.7612 80.0509 45.5476L70.5674 55.0311C71.7808 56.2447 73.4573 56.9953 75.3091 56.9953Z" fill="#333333"/>
<path d="M75.309 53.3801C77.016 53.3801 78.3998 51.9964 78.3998 50.2894C78.3998 48.5824 77.016 47.1986 75.309 47.1986C73.602 47.1986 72.2183 48.5824 72.2183 50.2894C72.2183 51.9964 73.602 53.3801 75.309 53.3801Z" fill="#C89AE4"/>
<path d="M63.8496 48.524H56.0104H50.4744H48.3109C47.8498 48.524 47.4761 48.0847 47.4761 47.5427V45.7185C47.4761 45.1765 47.8498 44.7372 48.3109 44.7372H63.8494C64.3105 44.7372 64.6843 45.1765 64.6843 45.7185V47.5427C64.6844 48.0847 64.3107 48.524 63.8496 48.524Z" fill="#C89AE4"/>
<path d="M69.1913 38.6178H66.6829C66.1388 38.6178 65.6978 39.0589 65.6978 39.6029C65.6978 40.1469 66.1388 40.588 66.6829 40.588H69.1913C69.7354 40.588 70.1764 40.1469 70.1764 39.6029C70.1764 39.0589 69.7354 38.6178 69.1913 38.6178Z" fill="#4F4F4F"/>
<path d="M28.7956 47.6891H23.0605L18.1234 52.6262H1.85693" stroke="#333333" stroke-width="3" stroke-linecap="round"/>
<path d="M8.05336 55.7801C9.79535 57.5221 12.6197 57.5221 14.3617 55.7801C16.1037 54.0381 16.1037 51.2138 14.3617 49.4718C12.6197 47.7298 9.79535 47.7298 8.05336 49.4718C6.31136 51.2138 6.31136 54.0381 8.05336 55.7801Z" fill="#4F4F4F"/>
<path d="M8.05299 55.7802C9.79516 57.5224 12.6198 57.5224 14.3619 55.7802C15.233 54.9091 15.6685 53.7674 15.6686 52.6257L6.74645 52.6257C6.74639 53.7674 7.1819 54.9091 8.05299 55.7802Z" fill="#333333"/>
<path d="M9.75361 54.0802C10.5566 54.8832 11.8585 54.8832 12.6614 54.0802C13.4644 53.2773 13.4644 51.9754 12.6614 51.1724C11.8585 50.3694 10.5566 50.3694 9.75361 51.1724C8.95064 51.9754 8.95064 53.2773 9.75361 54.0802Z" fill="#C89AE4"/>
</svg>
