<svg width="59" height="60" viewBox="0 0 59 60" fill="none" xmlns="http://www.w3.org/2000/svg">
<path d="M23.1125 44.6096L23.0116 44.3766C22.2215 42.267 20.2053 44.0906 17.9526 44.0906H12.0194C9.76677 44.0906 7.75056 42.2672 6.9604 44.3766L6.85956 44.6096H3.971C3.40157 44.6096 2.93994 45.0712 2.93994 45.6406V52.3307C2.93994 52.4455 2.94703 52.5601 2.96094 52.6738C3.08849 53.5543 3.84415 54.2313 4.7599 54.2313H70.6484C72.5362 54.2313 74.0666 52.701 74.0666 50.8131V44.6097L23.1125 44.6096Z" fill="#9D4ACF"/>
<path d="M70.6486 54.2312C72.5364 54.2312 74.1529 52.7008 74.1529 50.813V32.3694C74.1529 31.6776 73.8803 31.0136 73.394 30.5214L65.9042 22.9391C65.4101 22.439 64.7364 22.1575 64.0333 22.1575H50.546C49.1911 22.1575 48.0928 23.2558 48.0928 24.6107V54.2313L70.6486 54.2312Z" fill="#9D4ACF"/>
<path d="M73.3942 30.5212L65.9044 22.939C65.4103 22.4389 64.7366 22.1573 64.0335 22.1573H57.7046C58.4077 22.1573 59.0814 22.4389 59.5755 22.939L67.0653 30.5212C67.5516 31.0135 67.8242 31.6775 67.8242 32.3693V50.8128C67.8242 52.7007 66.2077 54.231 64.3199 54.231H70.6489C72.5367 54.231 74.1532 52.7007 74.1532 50.8128V32.3694C74.1531 31.6775 73.8805 31.0136 73.3942 30.5212Z" fill="#9D4ACF"/>
<path d="M52.6392 37.6374V27.6719C52.6392 27.0722 53.1254 26.5859 53.7252 26.5859H62.7579C63.0482 26.5859 63.3265 26.7022 63.5305 26.9088L69.2931 32.7425C69.4939 32.9457 69.6064 33.22 69.6064 33.5057V37.6376C69.6064 38.2373 69.1202 38.7235 68.5204 38.7235H53.7252C53.1254 38.7234 52.6392 38.2372 52.6392 37.6374Z" fill="#C89AE4"/>
<path d="M61.809 60.5783C65.745 60.5783 68.9358 57.3875 68.9358 53.4514C68.9358 49.5154 65.745 46.3246 61.809 46.3246C57.8729 46.3246 54.6821 49.5154 54.6821 53.4514C54.6821 57.3875 57.8729 60.5783 61.809 60.5783Z" fill="#4F4F4F"/>
<path d="M14.9169 60.5783C18.8529 60.5783 22.0437 57.3875 22.0437 53.4514C22.0437 49.5154 18.8529 46.3246 14.9169 46.3246C10.9808 46.3246 7.79004 49.5154 7.79004 53.4514C7.79004 57.3875 10.9808 60.5783 14.9169 60.5783Z" fill="#4F4F4F"/>
<path d="M14.9163 60.5791C18.8527 60.5791 22.0438 57.388 22.0438 53.4516C22.0438 51.4834 21.246 49.7015 19.9563 48.4116L9.87646 58.4914C11.1662 59.7813 12.9481 60.5791 14.9163 60.5791Z" fill="#333333"/>
<path d="M14.9174 56.7365C16.7317 56.7365 18.2025 55.2657 18.2025 53.4514C18.2025 51.6371 16.7317 50.1663 14.9174 50.1663C13.1031 50.1663 11.6323 51.6371 11.6323 53.4514C11.6323 55.2657 13.1031 56.7365 14.9174 56.7365Z" fill="#C89AE4"/>
<path d="M61.8084 60.5791C65.7448 60.5791 68.9359 57.388 68.9359 53.4516C68.9359 51.4834 68.1381 49.7015 66.8484 48.4116L56.7686 58.4914C58.0583 59.7813 59.8402 60.5791 61.8084 60.5791Z" fill="#333333"/>
<path d="M61.8085 56.7365C63.6229 56.7365 65.0937 55.2657 65.0937 53.4514C65.0937 51.6371 63.6229 50.1663 61.8085 50.1663C59.9942 50.1663 58.5234 51.6371 58.5234 53.4514C58.5234 55.2657 59.9942 56.7365 61.8085 56.7365Z" fill="#C89AE4"/>
<path d="M44.629 51.5751H34.8347H27.9181H25.2149C24.6388 51.5751 24.1719 51.1082 24.1719 50.5321V48.5932C24.1719 48.0171 24.6388 47.5502 25.2149 47.5502H44.6289C45.205 47.5502 45.6719 48.0171 45.6719 48.5932V50.5321C45.672 51.1082 45.2051 51.5751 44.629 51.5751Z" fill="#C89AE4"/>
<path d="M55.3055 41.0461H52.6393C52.061 41.0461 51.5923 41.515 51.5923 42.0932C51.5923 42.6714 52.061 43.1402 52.6393 43.1402H55.3055C55.8838 43.1402 56.3525 42.6714 56.3525 42.0932C56.3525 41.515 55.8838 41.0461 55.3055 41.0461Z" fill="#4F4F4F"/>
<path d="M0.946289 43.4555C0.946289 42.5659 1.66738 41.8448 2.5569 41.8448H48.351V45.0661H2.5569C1.66738 45.0661 0.946289 44.345 0.946289 43.4555Z" fill="#333333"/>
</svg>
