<svg width="39" height="39" viewBox="0 0 39 39" fill="none" xmlns="http://www.w3.org/2000/svg">
<path fill-rule="evenodd" clip-rule="evenodd" d="M19.1463 6.01844C13.3743 6.01844 8.69504 10.6976 8.69504 16.4697C8.69504 20.5133 11.333 24.4746 14.2812 27.5866C15.7227 29.1082 17.1696 30.3547 18.2579 31.2213C18.5929 31.488 18.8927 31.7178 19.1463 31.9075C19.4 31.7178 19.6998 31.488 20.0347 31.2213C21.1231 30.3547 22.57 29.1082 24.0115 27.5866C26.9597 24.4746 29.5976 20.5133 29.5976 16.4697C29.5976 10.6976 24.9184 6.01844 19.1463 6.01844ZM19.1463 33.8708C18.2613 35.1984 18.2604 35.1978 18.2604 35.1978L18.2563 35.195L18.2469 35.1887L18.2153 35.1674C18.1886 35.1492 18.1508 35.1234 18.1026 35.09C18.0062 35.0232 17.8682 34.9263 17.6945 34.8009C17.3473 34.5501 16.8566 34.1847 16.2701 33.7177C15.0996 32.7856 13.5348 31.4387 11.9646 29.7813C8.88941 26.5352 5.50391 21.796 5.50391 16.4697C5.50391 8.93523 11.6118 2.8273 19.1463 2.8273C26.6809 2.8273 32.7888 8.93523 32.7888 16.4697C32.7888 21.796 29.4033 26.5352 26.3281 29.7813C24.7579 31.4387 23.1931 32.7856 22.0226 33.7177C21.4361 34.1847 20.9454 34.5501 20.5982 34.8009C20.4245 34.9263 20.2865 35.0232 20.1901 35.09C20.1419 35.1234 20.1041 35.1492 20.0774 35.1674L20.0458 35.1887L20.0364 35.195L20.0334 35.1971C20.0334 35.1971 20.0314 35.1984 19.1463 33.8708ZM19.1463 33.8708L20.0314 35.1984C19.4955 35.5557 18.7964 35.5551 18.2604 35.1978L19.1463 33.8708Z" fill="#9D4ACF"/>
<path d="M8.69504 16.4697C8.69504 10.6976 13.3743 6.01844 19.1463 6.01844C24.9184 6.01844 29.5976 10.6976 29.5976 16.4697C29.5976 20.5133 26.9597 24.4746 24.0115 27.5866C22.57 29.1082 21.1231 30.3547 20.0347 31.2213C19.6998 31.488 19.4 31.7178 19.1463 31.9075C18.8927 31.7178 18.5929 31.488 18.2579 31.2213C17.1696 30.3547 15.7227 29.1082 14.2812 27.5866C11.333 24.4746 8.69504 20.5133 8.69504 16.4697Z" fill="#9D4ACF"/>
<path fill-rule="evenodd" clip-rule="evenodd" d="M13.5361 16.4697C13.5361 13.3708 16.0483 10.8586 19.1473 10.8586C22.2463 10.8586 24.7585 13.3708 24.7585 16.4697C24.7585 19.5687 22.2463 22.0809 19.1473 22.0809C16.0483 22.0809 13.5361 19.5687 13.5361 16.4697ZM19.1473 14.0497C17.8108 14.0497 16.7273 15.1332 16.7273 16.4697C16.7273 17.8063 17.8108 18.8898 19.1473 18.8898C20.4839 18.8898 21.5674 17.8063 21.5674 16.4697C21.5674 15.1332 20.4839 14.0497 19.1473 14.0497Z" fill="white"/>
<path d="M16.7273 16.4697C16.7273 15.1332 17.8108 14.0497 19.1473 14.0497C20.4839 14.0497 21.5674 15.1332 21.5674 16.4697C21.5674 17.8063 20.4839 18.8898 19.1473 18.8898C17.8108 18.8898 16.7273 17.8063 16.7273 16.4697Z" fill="white"/>
</svg>
